<svg width="28" height="28" viewBox="0 0 28 28" fill="none" xmlns="http://www.w3.org/2000/svg">
<path d="M26.4262 15.5027C26.3758 15.5938 26.2583 15.5128 26.3002 15.4116C27.1649 13.1753 27.316 10.5949 26.7536 8.24719C26.4094 6.76978 25.7798 5.37333 24.8731 4.20961C23.6643 2.65124 22.17 1.73039 20.6002 1.45717C20.5582 1.46729 20.5246 1.48753 20.4994 1.51789L15.5885 7.46801C15.3619 7.73111 15.3619 8.15613 15.5885 8.41923L22.9339 17.2736C23.5216 17.9921 23.5216 19.1558 22.9339 19.8641L22.808 20.0159L16.1929 28L21.49 19.1254C21.6244 18.8825 21.6076 18.5587 21.4397 18.3563L14.0019 9.38055L6.55573 18.3563C6.38784 18.5587 6.36265 18.8927 6.50537 19.1254L11.8025 28L5.17899 20.0159L5.05307 19.8641C4.46544 19.1558 4.46544 17.9921 5.05307 17.2736L12.4069 8.41923C12.6252 8.15613 12.6252 7.73111 12.4069 7.46801L7.49595 1.51789C7.46238 1.48753 7.42879 1.45717 7.38682 1.45717C5.817 1.74051 4.33112 2.65124 3.12227 4.20961C2.20724 5.38344 1.58603 6.7799 1.24184 8.24719C0.687786 10.605 0.838899 13.1753 1.69517 15.4116C1.73714 15.5128 1.61962 15.5938 1.56925 15.5027C-0.2776 12.4872 -0.495868 8.46982 0.922848 5.21141C1.29222 4.37152 1.76232 3.5721 2.35835 2.85363C3.93656 0.951211 6.00168 0 8.06679 0C8.25148 0 8.26827 -3.3956e-06 8.45296 0.0202351C8.45296 0.0202351 8.60407 0.0303566 8.61246 0.0303566C8.66283 0.0404758 8.76356 0.14167 8.79713 0.182147L14.0103 6.49657L19.215 0.182147C19.2486 0.14167 19.3578 0.0303566 19.4081 0.0303566L19.5676 0.0202351C19.7439 -3.3956e-06 19.7691 0 19.9454 0C22.0105 0 24.0756 0.951211 25.6538 2.85363C26.2415 3.56198 26.72 4.3614 27.0977 5.21141C28.4913 8.46982 28.273 12.4872 26.4262 15.5027Z" fill="#DC4C64"/>
</svg>
