<svg width="107" height="28" viewBox="0 0 107 28" fill="none" xmlns="http://www.w3.org/2000/svg">
<path d="M105.426 15.5027C105.376 15.5938 105.258 15.5128 105.3 15.4116C106.165 13.1753 106.316 10.5949 105.754 8.24719C105.409 6.76978 104.78 5.37333 103.873 4.20961C102.664 2.65124 101.17 1.73039 99.6002 1.45717C99.5582 1.46729 99.5246 1.48753 99.4994 1.51789L94.5885 7.46801C94.3619 7.73111 94.3619 8.15613 94.5885 8.41923L101.934 17.2736C102.522 17.9921 102.522 19.1558 101.934 19.8641L101.808 20.0159L95.1929 28L100.49 19.1254C100.624 18.8825 100.608 18.5587 100.44 18.3563L93.0019 9.38055L85.5557 18.3563C85.3878 18.5587 85.3627 18.8927 85.5054 19.1254L90.8025 28L84.179 20.0159L84.0531 19.8641C83.4654 19.1558 83.4654 17.9921 84.0531 17.2736L91.4069 8.41923C91.6252 8.15613 91.6252 7.73111 91.4069 7.46801L86.496 1.51789C86.4624 1.48753 86.4288 1.45717 86.3868 1.45717C84.817 1.74051 83.3311 2.65124 82.1223 4.20961C81.2072 5.38344 80.586 6.7799 80.2418 8.24719C79.6878 10.605 79.8389 13.1753 80.6952 15.4116C80.7371 15.5128 80.6196 15.5938 80.5692 15.5027C78.7224 12.4872 78.5041 8.46982 79.9228 5.21141C80.2922 4.37152 80.7623 3.5721 81.3583 2.85363C82.9366 0.951211 85.0017 0 87.0668 0C87.2515 0 87.2683 -3.3956e-06 87.453 0.0202351C87.453 0.0202351 87.6041 0.0303566 87.6125 0.0303566C87.6628 0.0404758 87.7636 0.14167 87.7971 0.182147L93.0103 6.49657L98.215 0.182147C98.2486 0.14167 98.3578 0.0303566 98.4081 0.0303566L98.5676 0.0202351C98.7439 -3.3956e-06 98.7691 0 98.9454 0C101.011 0 103.076 0.951211 104.654 2.85363C105.241 3.56198 105.72 4.3614 106.098 5.21141C107.491 8.46982 107.273 12.4872 105.426 15.5027Z" fill="#DC4C64"/>
<path d="M67.4041 8.8445H69.7878V3.85498H72.3492V8.8445H75.4732V11.0506H72.3492V17.0617C72.3492 17.7723 72.4725 18.2955 72.7193 18.6311C72.9759 18.9667 73.3165 19.1345 73.7409 19.1345C74.116 19.1345 74.4072 19.0654 74.6144 18.9272C74.8217 18.789 74.9451 18.6952 74.9846 18.6459L76.0062 20.541C75.9469 20.5904 75.789 20.6841 75.5324 20.8223C75.2758 20.9605 74.9451 21.0839 74.5404 21.1925C74.1357 21.301 73.6619 21.3553 73.1191 21.3553C72.1715 21.3553 71.3769 21.0691 70.7353 20.4966C70.1036 19.9142 69.7878 18.9963 69.7878 17.7427V11.0506H67.4041V8.8445Z" fill="#FBFBFB"/>
<path d="M61.9262 21V8.84452H64.5024V21H61.9262ZM63.2439 4.68412C62.78 4.68412 62.3802 4.52125 62.0446 4.19553C61.7189 3.85993 61.556 3.46018 61.556 2.99627C61.556 2.53235 61.7189 2.1326 62.0446 1.797C62.3802 1.46141 62.78 1.29361 63.2439 1.29361C63.5499 1.29361 63.8312 1.37257 64.0878 1.5305C64.3543 1.68843 64.5665 1.89571 64.7245 2.15234C64.8824 2.3991 64.9613 2.68041 64.9613 2.99627C64.9613 3.46018 64.7935 3.85993 64.458 4.19553C64.1224 4.52125 63.7177 4.68412 63.2439 4.68412Z" fill="#FBFBFB"/>
<path d="M53.8242 21H51.2628V8.8445H53.8242V10.9469H53.7502C53.7995 10.6903 53.9821 10.3695 54.298 9.98454C54.6138 9.59959 55.0481 9.25413 55.6009 8.94814C56.1536 8.64216 56.815 8.48917 57.5849 8.48917C58.1475 8.48917 58.641 8.56813 59.0654 8.72606C59.4997 8.87411 59.8057 9.02217 59.9834 9.17023L58.9322 11.3022C58.794 11.1641 58.5522 11.0259 58.2067 10.8877C57.8612 10.7396 57.4319 10.6656 56.9186 10.6656C56.2671 10.6656 55.7095 10.8679 55.2456 11.2726C54.7816 11.6773 54.4263 12.1659 54.1795 12.7384C53.9427 13.301 53.8242 13.8242 53.8242 14.3078V21Z" fill="#FBFBFB"/>
<path d="M45.3332 21V18.6311C45.2542 18.8778 45.0223 19.2184 44.6373 19.6527C44.2622 20.087 43.744 20.4818 43.0827 20.8371C42.4313 21.1826 41.6614 21.3553 40.773 21.3553C39.6478 21.3553 38.6262 21.0888 37.7082 20.5558C36.8002 20.0228 36.0747 19.2776 35.5318 18.3202C34.9988 17.3528 34.7323 16.2227 34.7323 14.9296C34.7323 13.6366 34.9988 12.5114 35.5318 11.5539C36.0747 10.5866 36.8002 9.83648 37.7082 9.30348C38.6262 8.7606 39.6478 8.48917 40.773 8.48917C41.6515 8.48917 42.4115 8.64709 43.0531 8.96295C43.7046 9.2788 44.2228 9.64401 44.6077 10.0586C45.0025 10.4731 45.2345 10.8285 45.3036 11.1246V8.8445H47.8502V21H45.3332ZM37.2789 14.9296C37.2789 15.8081 37.4714 16.5681 37.8563 17.2097C38.2413 17.8513 38.7397 18.3498 39.3517 18.7051C39.9735 19.0506 40.6348 19.2233 41.3356 19.2233C42.0858 19.2233 42.757 19.0456 43.3492 18.6903C43.9414 18.335 44.4103 17.8365 44.7558 17.1949C45.1012 16.5435 45.274 15.7884 45.274 14.9296C45.274 14.0709 45.1012 13.3208 44.7558 12.6792C44.4103 12.0277 43.9414 11.5243 43.3492 11.169C42.757 10.8038 42.0858 10.6212 41.3356 10.6212C40.6348 10.6212 39.9735 10.7989 39.3517 11.1542C38.7397 11.5095 38.2413 12.008 37.8563 12.6496C37.4714 13.2911 37.2789 14.0512 37.2789 14.9296Z" fill="#FBFBFB"/>
<path d="M27.1488 8.48918C27.9483 8.48918 28.7231 8.65698 29.4733 8.99257C30.2333 9.32817 30.8552 9.86117 31.3388 10.5916C31.8323 11.3121 32.0791 12.2548 32.0791 13.4195V21H29.4733V13.9229C29.4733 12.7187 29.1969 11.8451 28.6442 11.3023C28.1013 10.7495 27.3857 10.4731 26.4973 10.4731C25.9051 10.4731 25.3376 10.6409 24.7947 10.9765C24.2518 11.3023 23.8027 11.7563 23.4474 12.3387C23.1019 12.9111 22.9292 13.5626 22.9292 14.293V21H20.3234V0.62735H22.9292V11.0061C23.018 10.6706 23.2549 10.3053 23.6398 9.91052C24.0347 9.51571 24.5381 9.18011 25.15 8.90374C25.762 8.62736 26.4282 8.48918 27.1488 8.48918Z" fill="#FBFBFB"/>
<path d="M11.1191 18.8532C12.3331 18.8532 13.3843 18.6854 14.2727 18.3498C15.1709 18.0142 15.8075 17.6885 16.1826 17.3726L17.293 19.549C16.8489 19.9439 16.074 20.3436 14.9685 20.7483C13.8729 21.153 12.5552 21.3553 11.0154 21.3553C9.57433 21.3553 8.23689 21.0987 7.00308 20.5854C5.76927 20.0722 4.68845 19.3566 3.76063 18.4386C2.84268 17.5207 2.12213 16.4497 1.599 15.2258C1.08573 14.0018 0.829102 12.6792 0.829102 11.2578C0.829102 9.8365 1.08573 8.50892 1.599 7.27511C2.11226 6.0413 2.82787 4.96542 3.74582 4.04747C4.67365 3.11965 5.75446 2.3991 6.98827 1.88584C8.23195 1.3627 9.57433 1.10114 11.0154 1.10114C12.5552 1.10114 13.8729 1.30348 14.9685 1.70817C16.074 2.11286 16.8489 2.51261 17.293 2.90743L16.1826 5.08387C15.8075 4.75814 15.1709 4.43242 14.2727 4.10669C13.3843 3.7711 12.3331 3.6033 11.1191 3.6033C10.0136 3.6033 9.00185 3.79084 8.0839 4.16592C7.16594 4.54099 6.36643 5.074 5.68537 5.76493C5.01418 6.44599 4.49104 7.25044 4.11597 8.17826C3.75076 9.10609 3.56816 10.1178 3.56816 11.2134C3.56816 12.3189 3.75076 13.3405 4.11597 14.2782C4.49104 15.206 5.01418 16.0154 5.68537 16.7063C6.36643 17.3874 7.16594 17.9155 8.0839 18.2906C9.00185 18.6656 10.0136 18.8532 11.1191 18.8532Z" fill="#FBFBFB"/>
</svg>
